<svg width="100" height="100" viewBox="0 0 100 100" fill="none" xmlns="http://www.w3.org/2000/svg">
<rect width="100" height="100" rx="8" fill="#2B4C7E"/>
<path d="M27.8613 63H24.2578V41.3965H11.5137V37.793H40.6055V41.3965H27.8613V63ZM60.5391 63H56.9355V37.793H58.7285C59.9004 37.793 61.1426 37.9453 62.4551 38.25C63.7793 38.5547 65.127 38.9941 66.498 39.5684C67.8691 40.1426 69.2344 40.8398 70.5938 41.6602C71.9648 42.4688 73.2891 43.3887 74.5664 44.4199C75.8438 45.4512 77.0449 46.5762 78.1699 47.7949C79.2949 49.002 80.3027 50.291 81.1934 51.6621V37.793H84.7969V63H81.1934C81.1934 61.1484 80.8711 59.3672 80.2266 57.6562C79.582 55.9336 78.7207 54.3105 77.6426 52.7871C76.5645 51.2637 75.3223 49.8633 73.916 48.5859C72.5098 47.2969 71.0391 46.166 69.5039 45.1934C67.9805 44.2207 66.4453 43.4238 64.8984 42.8027C63.3516 42.1699 61.8984 41.748 60.5391 41.5371V63Z" fill="white"/>
</svg>
